<svg xmlns="http://www.w3.org/2000/svg" xmlns:xlink="http://www.w3.org/1999/xlink" width="500" zoomAndPan="magnify" viewBox="0 0 375 374.999991" height="500" preserveAspectRatio="xMidYMid meet" version="1.0"><defs><g/><clipPath id="98621fa340"><path d="M 110 50 L 302.617188 50 L 302.617188 242.132812 L 110 242.132812 Z M 110 50 " clip-rule="nonzero"/></clipPath><clipPath id="8f353755ab"><path d="M 74 14.132812 L 242 14.132812 L 242 181 L 74 181 Z M 74 14.132812 " clip-rule="nonzero"/></clipPath><clipPath id="6398f21e62"><path d="M 48.371094 242.097656 L 349.601562 242.097656 L 349.601562 298.347656 L 48.371094 298.347656 Z M 48.371094 242.097656 " clip-rule="nonzero"/></clipPath><clipPath id="29e4870d6f"><path d="M 321.476562 242.097656 C 337.011719 242.097656 349.601562 254.6875 349.601562 270.222656 C 349.601562 285.753906 337.011719 298.347656 321.476562 298.347656 L 76.496094 298.347656 C 60.964844 298.347656 48.371094 285.753906 48.371094 270.222656 C 48.371094 254.6875 60.964844 242.097656 76.496094 242.097656 Z M 321.476562 242.097656 " clip-rule="nonzero"/></clipPath><linearGradient x1="0.00660814" gradientTransform="matrix(0.219727, 0, 0, 0.219727, 48.371089, 242.097255)" y1="128" x2="1370.935013" gradientUnits="userSpaceOnUse" y2="128" id="9829bf4e15"><stop stop-opacity="1" stop-color="rgb(0%, 0%, 0%)" offset="0"/><stop stop-opacity="1" stop-color="rgb(0.0808716%, 0.0778198%, 0.312805%)" offset="0.00390625"/><stop stop-opacity="1" stop-color="rgb(0.161743%, 0.15564%, 0.627136%)" offset="0.0078125"/><stop stop-opacity="1" stop-color="rgb(0.242615%, 0.233459%, 0.941467%)" offset="0.0117188"/><stop stop-opacity="1" stop-color="rgb(0.325012%, 0.311279%, 1.255798%)" offset="0.015625"/><stop stop-opacity="1" stop-color="rgb(0.405884%, 0.389099%, 1.570129%)" offset="0.0195312"/><stop stop-opacity="1" stop-color="rgb(0.486755%, 0.468445%, 1.88446%)" offset="0.0234375"/><stop stop-opacity="1" stop-color="rgb(0.567627%, 0.546265%, 2.197266%)" offset="0.0273438"/><stop stop-opacity="1" stop-color="rgb(0.650024%, 0.624084%, 2.511597%)" offset="0.03125"/><stop stop-opacity="1" stop-color="rgb(0.730896%, 0.701904%, 2.825928%)" offset="0.0351562"/><stop stop-opacity="1" stop-color="rgb(0.811768%, 0.78125%, 3.140259%)" offset="0.0390625"/><stop stop-opacity="1" stop-color="rgb(0.892639%, 0.85907%, 3.45459%)" offset="0.0429687"/><stop stop-opacity="1" stop-color="rgb(0.975037%, 0.93689%, 3.768921%)" offset="0.046875"/><stop stop-opacity="1" stop-color="rgb(1.055908%, 1.014709%, 4.081726%)" offset="0.0507812"/><stop stop-opacity="1" stop-color="rgb(1.13678%, 1.092529%, 4.396057%)" offset="0.0546875"/><stop stop-opacity="1" stop-color="rgb(1.217651%, 1.170349%, 4.710388%)" offset="0.0585937"/><stop stop-opacity="1" stop-color="rgb(1.300049%, 1.249695%, 5.024719%)" offset="0.0625"/><stop stop-opacity="1" stop-color="rgb(1.38092%, 1.327515%, 5.33905%)" offset="0.0664062"/><stop stop-opacity="1" stop-color="rgb(1.461792%, 1.405334%, 5.653381%)" offset="0.0703125"/><stop stop-opacity="1" stop-color="rgb(1.542664%, 1.483154%, 5.966187%)" offset="0.0742187"/><stop stop-opacity="1" stop-color="rgb(1.625061%, 1.5625%, 6.280518%)" offset="0.078125"/><stop stop-opacity="1" stop-color="rgb(1.705933%, 1.64032%, 6.594849%)" offset="0.0820312"/><stop stop-opacity="1" stop-color="rgb(1.786804%, 1.71814%, 6.90918%)" offset="0.0859375"/><stop stop-opacity="1" stop-color="rgb(1.867676%, 1.795959%, 7.223511%)" offset="0.0898437"/><stop stop-opacity="1" stop-color="rgb(1.950073%, 1.873779%, 7.537842%)" offset="0.09375"/><stop stop-opacity="1" stop-color="rgb(2.030945%, 1.951599%, 7.850647%)" offset="0.0976562"/><stop stop-opacity="1" stop-color="rgb(2.111816%, 2.030945%, 8.164978%)" offset="0.101562"/><stop stop-opacity="1" stop-color="rgb(2.192688%, 2.108765%, 8.479309%)" offset="0.105469"/><stop stop-opacity="1" stop-color="rgb(2.275085%, 2.186584%, 8.79364%)" offset="0.109375"/><stop stop-opacity="1" stop-color="rgb(2.355957%, 2.264404%, 9.106445%)" offset="0.113281"/><stop stop-opacity="1" stop-color="rgb(2.436829%, 2.34375%, 9.420776%)" offset="0.117187"/><stop stop-opacity="1" stop-color="rgb(2.5177%, 2.42157%, 9.735107%)" offset="0.121094"/><stop stop-opacity="1" stop-color="rgb(2.598572%, 2.49939%, 10.049438%)" offset="0.125"/><stop stop-opacity="1" stop-color="rgb(2.679443%, 2.577209%, 10.36377%)" offset="0.128906"/><stop stop-opacity="1" stop-color="rgb(2.761841%, 2.655029%, 10.678101%)" offset="0.132812"/><stop stop-opacity="1" stop-color="rgb(2.842712%, 2.732849%, 10.990906%)" offset="0.136719"/><stop stop-opacity="1" stop-color="rgb(2.923584%, 2.812195%, 11.305237%)" offset="0.140625"/><stop stop-opacity="1" stop-color="rgb(3.004456%, 2.890015%, 11.619568%)" offset="0.144531"/><stop stop-opacity="1" stop-color="rgb(3.086853%, 2.967834%, 11.933899%)" offset="0.148437"/><stop stop-opacity="1" stop-color="rgb(3.167725%, 3.045654%, 12.24823%)" offset="0.152344"/><stop stop-opacity="1" stop-color="rgb(3.248596%, 3.125%, 12.562561%)" offset="0.15625"/><stop stop-opacity="1" stop-color="rgb(3.329468%, 3.20282%, 12.875366%)" offset="0.160156"/><stop stop-opacity="1" stop-color="rgb(3.411865%, 3.28064%, 13.189697%)" offset="0.164062"/><stop stop-opacity="1" stop-color="rgb(3.492737%, 3.358459%, 13.504028%)" offset="0.167969"/><stop stop-opacity="1" stop-color="rgb(3.573608%, 3.436279%, 13.818359%)" offset="0.171875"/><stop stop-opacity="1" stop-color="rgb(3.65448%, 3.514099%, 14.13269%)" offset="0.175781"/><stop stop-opacity="1" stop-color="rgb(3.736877%, 3.593445%, 14.447021%)" offset="0.179687"/><stop stop-opacity="1" stop-color="rgb(3.817749%, 3.671265%, 14.759827%)" offset="0.183594"/><stop stop-opacity="1" stop-color="rgb(3.898621%, 3.749084%, 15.074158%)" offset="0.1875"/><stop stop-opacity="1" stop-color="rgb(3.979492%, 3.826904%, 15.388489%)" offset="0.191406"/><stop stop-opacity="1" stop-color="rgb(4.06189%, 3.90625%, 15.70282%)" offset="0.195312"/><stop stop-opacity="1" stop-color="rgb(4.142761%, 3.98407%, 16.017151%)" offset="0.199219"/><stop stop-opacity="1" stop-color="rgb(4.223633%, 4.06189%, 16.331482%)" offset="0.203125"/><stop stop-opacity="1" stop-color="rgb(4.304504%, 4.139709%, 16.644287%)" offset="0.207031"/><stop stop-opacity="1" stop-color="rgb(4.386902%, 4.217529%, 16.958618%)" offset="0.210937"/><stop stop-opacity="1" stop-color="rgb(4.467773%, 4.295349%, 17.272949%)" offset="0.214844"/><stop stop-opacity="1" stop-color="rgb(4.548645%, 4.374695%, 17.58728%)" offset="0.21875"/><stop stop-opacity="1" stop-color="rgb(4.629517%, 4.452515%, 17.900085%)" offset="0.222656"/><stop stop-opacity="1" stop-color="rgb(4.711914%, 4.530334%, 18.214417%)" offset="0.226562"/><stop stop-opacity="1" stop-color="rgb(4.792786%, 4.608154%, 18.528748%)" offset="0.230469"/><stop stop-opacity="1" stop-color="rgb(4.873657%, 4.6875%, 18.843079%)" offset="0.234375"/><stop stop-opacity="1" stop-color="rgb(4.954529%, 4.76532%, 19.15741%)" offset="0.238281"/><stop stop-opacity="1" stop-color="rgb(5.036926%, 4.84314%, 19.471741%)" offset="0.242187"/><stop stop-opacity="1" stop-color="rgb(5.117798%, 4.920959%, 19.784546%)" offset="0.246094"/><stop stop-opacity="1" stop-color="rgb(5.198669%, 4.998779%, 20.098877%)" offset="0.25"/><stop stop-opacity="1" stop-color="rgb(5.279541%, 5.076599%, 20.413208%)" offset="0.253906"/><stop stop-opacity="1" stop-color="rgb(5.361938%, 5.155945%, 20.727539%)" offset="0.257812"/><stop stop-opacity="1" stop-color="rgb(5.44281%, 5.233765%, 21.04187%)" offset="0.261719"/><stop stop-opacity="1" stop-color="rgb(5.523682%, 5.311584%, 21.356201%)" offset="0.265625"/><stop stop-opacity="1" stop-color="rgb(5.604553%, 5.389404%, 21.669006%)" offset="0.269531"/><stop stop-opacity="1" stop-color="rgb(5.686951%, 5.46875%, 21.983337%)" offset="0.273437"/><stop stop-opacity="1" stop-color="rgb(5.767822%, 5.54657%, 22.297668%)" offset="0.277344"/><stop stop-opacity="1" stop-color="rgb(5.848694%, 5.62439%, 22.612%)" offset="0.28125"/><stop stop-opacity="1" stop-color="rgb(5.929565%, 5.702209%, 22.926331%)" offset="0.285156"/><stop stop-opacity="1" stop-color="rgb(6.011963%, 5.780029%, 23.240662%)" offset="0.289062"/><stop stop-opacity="1" stop-color="rgb(6.092834%, 5.857849%, 23.553467%)" offset="0.292969"/><stop stop-opacity="1" stop-color="rgb(6.173706%, 5.937195%, 23.867798%)" offset="0.296875"/><stop stop-opacity="1" stop-color="rgb(6.254578%, 6.015015%, 24.182129%)" offset="0.300781"/><stop stop-opacity="1" stop-color="rgb(6.336975%, 6.092834%, 24.49646%)" offset="0.304687"/><stop stop-opacity="1" stop-color="rgb(6.417847%, 6.170654%, 24.810791%)" offset="0.308594"/><stop stop-opacity="1" stop-color="rgb(6.498718%, 6.25%, 25.125122%)" offset="0.3125"/><stop stop-opacity="1" stop-color="rgb(6.57959%, 6.32782%, 25.437927%)" offset="0.316406"/><stop stop-opacity="1" stop-color="rgb(6.661987%, 6.40564%, 25.752258%)" offset="0.320312"/><stop stop-opacity="1" stop-color="rgb(6.742859%, 6.483459%, 26.066589%)" offset="0.324219"/><stop stop-opacity="1" stop-color="rgb(6.82373%, 6.561279%, 26.38092%)" offset="0.328125"/><stop stop-opacity="1" stop-color="rgb(6.904602%, 6.639099%, 26.695251%)" offset="0.332031"/><stop stop-opacity="1" stop-color="rgb(6.987%, 6.718445%, 27.009583%)" offset="0.335937"/><stop stop-opacity="1" stop-color="rgb(7.067871%, 6.796265%, 27.322388%)" offset="0.339844"/><stop stop-opacity="1" stop-color="rgb(7.148743%, 6.874084%, 27.636719%)" offset="0.34375"/><stop stop-opacity="1" stop-color="rgb(7.229614%, 6.951904%, 27.95105%)" offset="0.347656"/><stop stop-opacity="1" stop-color="rgb(7.312012%, 7.03125%, 28.265381%)" offset="0.351562"/><stop stop-opacity="1" stop-color="rgb(7.392883%, 7.10907%, 28.578186%)" offset="0.355469"/><stop stop-opacity="1" stop-color="rgb(7.473755%, 7.18689%, 28.892517%)" offset="0.359375"/><stop stop-opacity="1" stop-color="rgb(7.554626%, 7.264709%, 29.206848%)" offset="0.363281"/><stop stop-opacity="1" stop-color="rgb(7.637024%, 7.342529%, 29.521179%)" offset="0.367187"/><stop stop-opacity="1" stop-color="rgb(7.717896%, 7.420349%, 29.83551%)" offset="0.371094"/><stop stop-opacity="1" stop-color="rgb(7.798767%, 7.499695%, 30.149841%)" offset="0.375"/><stop stop-opacity="1" stop-color="rgb(7.879639%, 7.577515%, 30.462646%)" offset="0.378906"/><stop stop-opacity="1" stop-color="rgb(7.962036%, 7.655334%, 30.776978%)" offset="0.382812"/><stop stop-opacity="1" stop-color="rgb(8.042908%, 7.733154%, 31.091309%)" offset="0.386719"/><stop stop-opacity="1" stop-color="rgb(8.123779%, 7.8125%, 31.40564%)" offset="0.390625"/><stop stop-opacity="1" stop-color="rgb(8.204651%, 7.89032%, 31.719971%)" offset="0.394531"/><stop stop-opacity="1" stop-color="rgb(8.287048%, 7.96814%, 32.034302%)" offset="0.398437"/><stop stop-opacity="1" stop-color="rgb(8.36792%, 8.045959%, 32.347107%)" offset="0.402344"/><stop stop-opacity="1" stop-color="rgb(8.448792%, 8.123779%, 32.661438%)" offset="0.40625"/><stop stop-opacity="1" stop-color="rgb(8.529663%, 8.201599%, 32.975769%)" offset="0.410156"/><stop stop-opacity="1" stop-color="rgb(8.612061%, 8.280945%, 33.2901%)" offset="0.414062"/><stop stop-opacity="1" stop-color="rgb(8.692932%, 8.358765%, 33.604431%)" offset="0.417969"/><stop stop-opacity="1" stop-color="rgb(8.773804%, 8.436584%, 33.918762%)" offset="0.421875"/><stop stop-opacity="1" stop-color="rgb(8.854675%, 8.514404%, 34.231567%)" offset="0.425781"/><stop stop-opacity="1" stop-color="rgb(8.937073%, 8.59375%, 34.545898%)" offset="0.429687"/><stop stop-opacity="1" stop-color="rgb(9.017944%, 8.67157%, 34.860229%)" offset="0.433594"/><stop stop-opacity="1" stop-color="rgb(9.098816%, 8.74939%, 35.174561%)" offset="0.4375"/><stop stop-opacity="1" stop-color="rgb(9.179688%, 8.827209%, 35.488892%)" offset="0.441406"/><stop stop-opacity="1" stop-color="rgb(9.262085%, 8.905029%, 35.803223%)" offset="0.445312"/><stop stop-opacity="1" stop-color="rgb(9.342957%, 8.982849%, 36.116028%)" offset="0.449219"/><stop stop-opacity="1" stop-color="rgb(9.423828%, 9.062195%, 36.430359%)" offset="0.453125"/><stop stop-opacity="1" stop-color="rgb(9.5047%, 9.140015%, 36.74469%)" offset="0.457031"/><stop stop-opacity="1" stop-color="rgb(9.587097%, 9.217834%, 37.059021%)" offset="0.460937"/><stop stop-opacity="1" stop-color="rgb(9.667969%, 9.295654%, 37.373352%)" offset="0.464844"/><stop stop-opacity="1" stop-color="rgb(9.74884%, 9.375%, 37.687683%)" offset="0.46875"/><stop stop-opacity="1" stop-color="rgb(9.829712%, 9.45282%, 38.000488%)" offset="0.472656"/><stop stop-opacity="1" stop-color="rgb(9.912109%, 9.53064%, 38.314819%)" offset="0.476562"/><stop stop-opacity="1" stop-color="rgb(9.992981%, 9.608459%, 38.62915%)" offset="0.480469"/><stop stop-opacity="1" stop-color="rgb(10.073853%, 9.686279%, 38.943481%)" offset="0.484375"/><stop stop-opacity="1" stop-color="rgb(10.154724%, 9.764099%, 39.256287%)" offset="0.488281"/><stop stop-opacity="1" stop-color="rgb(10.237122%, 9.843445%, 39.570618%)" offset="0.492187"/><stop stop-opacity="1" stop-color="rgb(10.317993%, 9.921265%, 39.884949%)" offset="0.496094"/><stop stop-opacity="1" stop-color="rgb(10.398865%, 9.999084%, 40.19928%)" offset="0.5"/><stop stop-opacity="1" stop-color="rgb(10.479736%, 10.076904%, 40.513611%)" offset="0.503906"/><stop stop-opacity="1" stop-color="rgb(10.562134%, 10.15625%, 40.827942%)" offset="0.507812"/><stop stop-opacity="1" stop-color="rgb(10.643005%, 10.23407%, 41.140747%)" offset="0.511719"/><stop stop-opacity="1" stop-color="rgb(10.723877%, 10.31189%, 41.455078%)" offset="0.515625"/><stop stop-opacity="1" stop-color="rgb(10.804749%, 10.389709%, 41.769409%)" offset="0.519531"/><stop stop-opacity="1" stop-color="rgb(10.887146%, 10.467529%, 42.08374%)" offset="0.523438"/><stop stop-opacity="1" stop-color="rgb(10.968018%, 10.545349%, 42.398071%)" offset="0.527344"/><stop stop-opacity="1" stop-color="rgb(11.048889%, 10.624695%, 42.712402%)" offset="0.53125"/><stop stop-opacity="1" stop-color="rgb(11.129761%, 10.702515%, 43.025208%)" offset="0.535156"/><stop stop-opacity="1" stop-color="rgb(11.212158%, 10.780334%, 43.339539%)" offset="0.539063"/><stop stop-opacity="1" stop-color="rgb(11.29303%, 10.858154%, 43.65387%)" offset="0.542969"/><stop stop-opacity="1" stop-color="rgb(11.373901%, 10.9375%, 43.968201%)" offset="0.546875"/><stop stop-opacity="1" stop-color="rgb(11.454773%, 11.01532%, 44.282532%)" offset="0.550781"/><stop stop-opacity="1" stop-color="rgb(11.53717%, 11.09314%, 44.596863%)" offset="0.554688"/><stop stop-opacity="1" stop-color="rgb(11.618042%, 11.170959%, 44.909668%)" offset="0.558594"/><stop stop-opacity="1" stop-color="rgb(11.698914%, 11.248779%, 45.223999%)" offset="0.5625"/><stop stop-opacity="1" stop-color="rgb(11.779785%, 11.326599%, 45.53833%)" offset="0.566406"/><stop stop-opacity="1" stop-color="rgb(11.862183%, 11.405945%, 45.852661%)" offset="0.570313"/><stop stop-opacity="1" stop-color="rgb(11.943054%, 11.483765%, 46.166992%)" offset="0.574219"/><stop stop-opacity="1" stop-color="rgb(12.023926%, 11.561584%, 46.481323%)" offset="0.578125"/><stop stop-opacity="1" stop-color="rgb(12.104797%, 11.639404%, 46.794128%)" offset="0.582031"/><stop stop-opacity="1" stop-color="rgb(12.187195%, 11.71875%, 47.108459%)" offset="0.585938"/><stop stop-opacity="1" stop-color="rgb(12.268066%, 11.79657%, 47.422791%)" offset="0.589844"/><stop stop-opacity="1" stop-color="rgb(12.348938%, 11.87439%, 47.737122%)" offset="0.59375"/><stop stop-opacity="1" stop-color="rgb(12.42981%, 11.952209%, 48.049927%)" offset="0.597656"/><stop stop-opacity="1" stop-color="rgb(12.512207%, 12.030029%, 48.364258%)" offset="0.601563"/><stop stop-opacity="1" stop-color="rgb(12.593079%, 12.107849%, 48.678589%)" offset="0.605469"/><stop stop-opacity="1" stop-color="rgb(12.67395%, 12.187195%, 48.99292%)" offset="0.609375"/><stop stop-opacity="1" stop-color="rgb(12.754822%, 12.265015%, 49.307251%)" offset="0.613281"/><stop stop-opacity="1" stop-color="rgb(12.837219%, 12.342834%, 49.621582%)" offset="0.617188"/><stop stop-opacity="1" stop-color="rgb(12.918091%, 12.420654%, 49.934387%)" offset="0.621094"/><stop stop-opacity="1" stop-color="rgb(12.998962%, 12.5%, 50.248718%)" offset="0.625"/><stop stop-opacity="1" stop-color="rgb(13.079834%, 12.57782%, 50.563049%)" offset="0.628906"/><stop stop-opacity="1" stop-color="rgb(13.162231%, 12.65564%, 50.87738%)" offset="0.632813"/><stop stop-opacity="1" stop-color="rgb(13.243103%, 12.733459%, 51.191711%)" offset="0.636719"/><stop stop-opacity="1" stop-color="rgb(13.323975%, 12.811279%, 51.506042%)" offset="0.640625"/><stop stop-opacity="1" stop-color="rgb(13.404846%, 12.889099%, 51.818848%)" offset="0.644531"/><stop stop-opacity="1" stop-color="rgb(13.487244%, 12.968445%, 52.133179%)" offset="0.648438"/><stop stop-opacity="1" stop-color="rgb(13.568115%, 13.046265%, 52.44751%)" offset="0.652344"/><stop stop-opacity="1" stop-color="rgb(13.648987%, 13.124084%, 52.761841%)" offset="0.65625"/><stop stop-opacity="1" stop-color="rgb(13.729858%, 13.201904%, 53.076172%)" offset="0.660156"/><stop stop-opacity="1" stop-color="rgb(13.812256%, 13.28125%, 53.390503%)" offset="0.664063"/><stop stop-opacity="1" stop-color="rgb(13.893127%, 13.35907%, 53.703308%)" offset="0.667969"/><stop stop-opacity="1" stop-color="rgb(13.973999%, 13.43689%, 54.017639%)" offset="0.671875"/><stop stop-opacity="1" stop-color="rgb(14.054871%, 13.514709%, 54.33197%)" offset="0.675781"/><stop stop-opacity="1" stop-color="rgb(14.137268%, 13.592529%, 54.646301%)" offset="0.679688"/><stop stop-opacity="1" stop-color="rgb(14.21814%, 13.670349%, 54.960632%)" offset="0.683594"/><stop stop-opacity="1" stop-color="rgb(14.299011%, 13.749695%, 55.274963%)" offset="0.6875"/><stop stop-opacity="1" stop-color="rgb(14.379883%, 13.827515%, 55.587769%)" offset="0.691406"/><stop stop-opacity="1" stop-color="rgb(14.46228%, 13.905334%, 55.9021%)" offset="0.695313"/><stop stop-opacity="1" stop-color="rgb(14.543152%, 13.983154%, 56.216431%)" offset="0.699219"/><stop stop-opacity="1" stop-color="rgb(14.624023%, 14.0625%, 56.530762%)" offset="0.703125"/><stop stop-opacity="1" stop-color="rgb(14.704895%, 14.14032%, 56.845093%)" offset="0.707031"/><stop stop-opacity="1" stop-color="rgb(14.787292%, 14.21814%, 57.159424%)" offset="0.710938"/><stop stop-opacity="1" stop-color="rgb(14.868164%, 14.295959%, 57.472229%)" offset="0.714844"/><stop stop-opacity="1" stop-color="rgb(14.949036%, 14.373779%, 57.78656%)" offset="0.71875"/><stop stop-opacity="1" stop-color="rgb(15.029907%, 14.451599%, 58.100891%)" offset="0.722656"/><stop stop-opacity="1" stop-color="rgb(15.112305%, 14.530945%, 58.415222%)" offset="0.726563"/><stop stop-opacity="1" stop-color="rgb(15.193176%, 14.608765%, 58.728027%)" offset="0.730469"/><stop stop-opacity="1" stop-color="rgb(15.274048%, 14.686584%, 59.042358%)" offset="0.734375"/><stop stop-opacity="1" stop-color="rgb(15.354919%, 14.764404%, 59.356689%)" offset="0.738281"/><stop stop-opacity="1" stop-color="rgb(15.437317%, 14.84375%, 59.671021%)" offset="0.742188"/><stop stop-opacity="1" stop-color="rgb(15.518188%, 14.92157%, 59.985352%)" offset="0.746094"/><stop stop-opacity="1" stop-color="rgb(15.59906%, 14.99939%, 60.299683%)" offset="0.75"/><stop stop-opacity="1" stop-color="rgb(15.679932%, 15.077209%, 60.612488%)" offset="0.753906"/><stop stop-opacity="1" stop-color="rgb(15.762329%, 15.155029%, 60.926819%)" offset="0.757813"/><stop stop-opacity="1" stop-color="rgb(15.843201%, 15.232849%, 61.24115%)" offset="0.761719"/><stop stop-opacity="1" stop-color="rgb(15.924072%, 15.312195%, 61.555481%)" offset="0.765625"/><stop stop-opacity="1" stop-color="rgb(16.004944%, 15.390015%, 61.869812%)" offset="0.769531"/><stop stop-opacity="1" stop-color="rgb(16.087341%, 15.467834%, 62.184143%)" offset="0.773438"/><stop stop-opacity="1" stop-color="rgb(16.168213%, 15.545654%, 62.496948%)" offset="0.777344"/><stop stop-opacity="1" stop-color="rgb(16.249084%, 15.625%, 62.811279%)" offset="0.78125"/><stop stop-opacity="1" stop-color="rgb(16.329956%, 15.70282%, 63.12561%)" offset="0.785156"/><stop stop-opacity="1" stop-color="rgb(16.412354%, 15.78064%, 63.439941%)" offset="0.789063"/><stop stop-opacity="1" stop-color="rgb(16.493225%, 15.858459%, 63.754272%)" offset="0.792969"/><stop stop-opacity="1" stop-color="rgb(16.574097%, 15.936279%, 64.068604%)" offset="0.796875"/><stop stop-opacity="1" stop-color="rgb(16.654968%, 16.014099%, 64.381409%)" offset="0.800781"/><stop stop-opacity="1" stop-color="rgb(16.737366%, 16.093445%, 64.69574%)" offset="0.804688"/><stop stop-opacity="1" stop-color="rgb(16.818237%, 16.171265%, 65.010071%)" offset="0.808594"/><stop stop-opacity="1" stop-color="rgb(16.899109%, 16.249084%, 65.324402%)" offset="0.8125"/><stop stop-opacity="1" stop-color="rgb(16.97998%, 16.326904%, 65.638733%)" offset="0.816406"/><stop stop-opacity="1" stop-color="rgb(17.062378%, 16.40625%, 65.953064%)" offset="0.820313"/><stop stop-opacity="1" stop-color="rgb(17.14325%, 16.48407%, 66.265869%)" offset="0.824219"/><stop stop-opacity="1" stop-color="rgb(17.224121%, 16.56189%, 66.5802%)" offset="0.828125"/><stop stop-opacity="1" stop-color="rgb(17.304993%, 16.639709%, 66.894531%)" offset="0.832031"/><stop stop-opacity="1" stop-color="rgb(17.38739%, 16.717529%, 67.208862%)" offset="0.835938"/><stop stop-opacity="1" stop-color="rgb(17.468262%, 16.795349%, 67.523193%)" offset="0.839844"/><stop stop-opacity="1" stop-color="rgb(17.549133%, 16.874695%, 67.837524%)" offset="0.84375"/><stop stop-opacity="1" stop-color="rgb(17.630005%, 16.952515%, 68.15033%)" offset="0.847656"/><stop stop-opacity="1" stop-color="rgb(17.712402%, 17.030334%, 68.464661%)" offset="0.851563"/><stop stop-opacity="1" stop-color="rgb(17.793274%, 17.108154%, 68.778992%)" offset="0.855469"/><stop stop-opacity="1" stop-color="rgb(17.874146%, 17.1875%, 69.093323%)" offset="0.859375"/><stop stop-opacity="1" stop-color="rgb(17.955017%, 17.26532%, 69.406128%)" offset="0.863281"/><stop stop-opacity="1" stop-color="rgb(18.037415%, 17.34314%, 69.720459%)" offset="0.867188"/><stop stop-opacity="1" stop-color="rgb(18.118286%, 17.420959%, 70.03479%)" offset="0.871094"/><stop stop-opacity="1" stop-color="rgb(18.199158%, 17.498779%, 70.349121%)" offset="0.875"/><stop stop-opacity="1" stop-color="rgb(18.280029%, 17.576599%, 70.663452%)" offset="0.878906"/><stop stop-opacity="1" stop-color="rgb(18.362427%, 17.655945%, 70.977783%)" offset="0.882813"/><stop stop-opacity="1" stop-color="rgb(18.443298%, 17.733765%, 71.290588%)" offset="0.886719"/><stop stop-opacity="1" stop-color="rgb(18.52417%, 17.811584%, 71.604919%)" offset="0.890625"/><stop stop-opacity="1" stop-color="rgb(18.605042%, 17.889404%, 71.91925%)" offset="0.894531"/><stop stop-opacity="1" stop-color="rgb(18.687439%, 17.96875%, 72.233582%)" offset="0.898438"/><stop stop-opacity="1" stop-color="rgb(18.768311%, 18.04657%, 72.547913%)" offset="0.902344"/><stop stop-opacity="1" stop-color="rgb(18.849182%, 18.12439%, 72.862244%)" offset="0.90625"/><stop stop-opacity="1" stop-color="rgb(18.930054%, 18.202209%, 73.175049%)" offset="0.910156"/><stop stop-opacity="1" stop-color="rgb(19.012451%, 18.280029%, 73.48938%)" offset="0.914063"/><stop stop-opacity="1" stop-color="rgb(19.093323%, 18.357849%, 73.803711%)" offset="0.917969"/><stop stop-opacity="1" stop-color="rgb(19.174194%, 18.437195%, 74.118042%)" offset="0.921875"/><stop stop-opacity="1" stop-color="rgb(19.255066%, 18.515015%, 74.432373%)" offset="0.925781"/><stop stop-opacity="1" stop-color="rgb(19.337463%, 18.592834%, 74.746704%)" offset="0.929688"/><stop stop-opacity="1" stop-color="rgb(19.418335%, 18.670654%, 75.059509%)" offset="0.933594"/><stop stop-opacity="1" stop-color="rgb(19.499207%, 18.75%, 75.37384%)" offset="0.9375"/><stop stop-opacity="1" stop-color="rgb(19.580078%, 18.82782%, 75.688171%)" offset="0.941406"/><stop stop-opacity="1" stop-color="rgb(19.662476%, 18.90564%, 76.002502%)" offset="0.945313"/><stop stop-opacity="1" stop-color="rgb(19.743347%, 18.983459%, 76.316833%)" offset="0.949219"/><stop stop-opacity="1" stop-color="rgb(19.824219%, 19.061279%, 76.631165%)" offset="0.953125"/><stop stop-opacity="1" stop-color="rgb(19.90509%, 19.139099%, 76.94397%)" offset="0.957031"/><stop stop-opacity="1" stop-color="rgb(19.987488%, 19.218445%, 77.258301%)" offset="0.960938"/><stop stop-opacity="1" stop-color="rgb(20.068359%, 19.296265%, 77.572632%)" offset="0.964844"/><stop stop-opacity="1" stop-color="rgb(20.149231%, 19.374084%, 77.886963%)" offset="0.96875"/><stop stop-opacity="1" stop-color="rgb(20.230103%, 19.451904%, 78.201294%)" offset="0.972656"/><stop stop-opacity="1" stop-color="rgb(20.3125%, 19.53125%, 78.515625%)" offset="0.976563"/><stop stop-opacity="1" stop-color="rgb(20.393372%, 19.60907%, 78.82843%)" offset="0.980469"/><stop stop-opacity="1" stop-color="rgb(20.474243%, 19.68689%, 79.142761%)" offset="0.984375"/><stop stop-opacity="1" stop-color="rgb(20.555115%, 19.764709%, 79.457092%)" offset="0.988281"/><stop stop-opacity="1" stop-color="rgb(20.635986%, 19.842529%, 79.771423%)" offset="0.992188"/><stop stop-opacity="1" stop-color="rgb(20.716858%, 19.920349%, 80.084229%)" offset="0.996094"/><stop stop-opacity="1" stop-color="rgb(20.799255%, 19.999695%, 80.39856%)" offset="1"/></linearGradient></defs><rect x="-37.5" width="450" fill="#ffffff" y="-37.499999" height="449.999989" fill-opacity="1"/><rect x="-37.5" width="450" fill="#ffffff" y="-37.499999" height="449.999989" fill-opacity="1"/><g clip-path="url(#98621fa340)"><path fill="#3533cd" d="M 299.402344 124.078125 L 278.210938 122.007812 C 277.136719 118.78125 275.832031 115.710938 274.296875 112.640625 L 287.808594 96.207031 C 288.960938 94.824219 288.808594 92.828125 287.578125 91.601562 L 261.246094 65.265625 C 261.089844 65.113281 260.9375 64.957031 260.707031 64.804688 C 260.628906 64.726562 260.554688 64.726562 260.476562 64.726562 C 260.324219 64.652344 260.246094 64.574219 260.09375 64.496094 C 260.015625 64.496094 259.9375 64.421875 259.863281 64.421875 C 259.707031 64.34375 259.632812 64.34375 259.476562 64.34375 C 259.402344 64.34375 259.324219 64.34375 259.171875 64.34375 C 259.019531 64.34375 258.941406 64.34375 258.789062 64.34375 C 258.710938 64.34375 258.558594 64.34375 258.480469 64.34375 C 258.402344 64.34375 258.328125 64.34375 258.25 64.34375 C 258.097656 64.34375 258.019531 64.421875 257.867188 64.421875 C 257.789062 64.421875 257.710938 64.421875 257.636719 64.496094 C 257.480469 64.574219 257.40625 64.574219 257.25 64.652344 C 257.175781 64.652344 257.097656 64.726562 257.097656 64.726562 C 256.945312 64.804688 256.714844 64.957031 256.5625 65.113281 L 240.207031 78.472656 C 237.210938 76.9375 234.0625 75.707031 230.839844 74.554688 L 228.765625 53.363281 C 228.613281 51.597656 227.078125 50.21875 225.3125 50.21875 L 188.074219 50.21875 C 186.308594 50.21875 184.773438 51.597656 184.617188 53.363281 L 182.546875 74.554688 C 181.085938 75.015625 179.628906 75.632812 178.167969 76.167969 C 177.9375 77.167969 177.632812 78.164062 177.324219 79.238281 L 202.046875 103.960938 C 203.121094 103.886719 204.121094 103.808594 205.195312 103.730469 C 205.734375 103.730469 206.191406 103.730469 206.730469 103.730469 C 230.148438 103.730469 249.191406 122.773438 249.191406 146.191406 C 249.191406 146.882812 249.191406 147.574219 249.113281 148.1875 C 249.113281 148.417969 249.113281 148.648438 249.113281 148.878906 C 249.113281 149.339844 249.035156 149.800781 249.035156 150.261719 C 249.035156 150.492188 248.960938 150.722656 248.960938 151.027344 C 248.882812 151.644531 248.804688 152.179688 248.730469 152.792969 C 248.652344 153.179688 248.574219 153.484375 248.574219 153.871094 C 248.5 154.101562 248.5 154.328125 248.421875 154.636719 C 248.34375 155.019531 248.269531 155.480469 248.191406 155.867188 C 248.191406 156.019531 248.113281 156.097656 248.113281 156.25 C 247.5 158.859375 246.65625 161.394531 245.503906 163.851562 C 241.28125 173.21875 233.757812 180.742188 224.390625 185.042969 C 221.933594 186.195312 219.398438 187.039062 216.789062 187.652344 C 216.636719 187.652344 216.558594 187.730469 216.40625 187.730469 C 216.019531 187.804688 215.558594 187.882812 215.175781 187.960938 C 214.945312 188.035156 214.714844 188.035156 214.410156 188.113281 C 214.023438 188.191406 213.71875 188.265625 213.332031 188.265625 C 212.796875 188.34375 212.183594 188.421875 211.566406 188.496094 C 211.335938 188.496094 211.105469 188.574219 210.800781 188.574219 C 210.339844 188.652344 209.878906 188.652344 209.417969 188.652344 C 209.1875 188.652344 208.957031 188.652344 208.726562 188.652344 C 208.035156 188.652344 207.421875 188.726562 206.730469 188.726562 C 183.3125 188.726562 164.273438 169.6875 164.273438 146.269531 C 164.273438 145.5 164.273438 144.65625 164.347656 143.886719 C 164.347656 143.734375 164.347656 143.582031 164.347656 143.425781 C 164.425781 142.8125 164.425781 142.199219 164.503906 141.585938 L 139.777344 116.863281 C 138.78125 117.167969 137.78125 117.398438 136.707031 117.707031 C 136.707031 117.707031 136.707031 117.78125 136.632812 117.78125 C 136.402344 118.472656 136.09375 119.089844 135.863281 119.777344 C 135.554688 120.546875 135.324219 121.316406 135.019531 122.082031 L 113.828125 124.15625 C 112.0625 124.308594 110.679688 125.84375 110.679688 127.609375 L 110.679688 164.847656 C 110.679688 166.613281 112.0625 168.148438 113.828125 168.304688 L 135.019531 170.378906 C 136.09375 173.601562 137.398438 176.671875 138.933594 179.742188 L 125.421875 196.175781 C 124.269531 197.558594 124.421875 199.554688 125.652344 200.78125 L 151.988281 227.117188 C 152.140625 227.269531 152.292969 227.425781 152.523438 227.578125 C 152.601562 227.65625 152.679688 227.65625 152.753906 227.65625 C 152.910156 227.730469 152.984375 227.808594 153.140625 227.886719 C 153.214844 227.886719 153.292969 227.960938 153.367188 227.960938 C 153.523438 228.039062 153.597656 228.039062 153.753906 228.039062 C 153.828125 228.039062 153.90625 228.039062 154.058594 228.039062 C 154.214844 228.039062 154.289062 228.039062 154.445312 228.039062 C 154.519531 228.039062 154.675781 228.039062 154.75 228.039062 C 154.828125 228.039062 154.90625 228.039062 154.980469 228.039062 C 155.136719 228.039062 155.210938 227.960938 155.367188 227.960938 C 155.441406 227.960938 155.519531 227.960938 155.59375 227.886719 C 155.75 227.808594 155.824219 227.808594 155.980469 227.730469 C 156.054688 227.730469 156.132812 227.65625 156.132812 227.65625 C 156.285156 227.578125 156.515625 227.425781 156.671875 227.269531 L 173.101562 213.757812 C 176.171875 215.292969 179.242188 216.597656 182.46875 217.671875 L 184.542969 238.863281 C 184.695312 240.628906 186.230469 242.011719 187.996094 242.011719 L 225.234375 242.011719 C 227 242.011719 228.535156 240.628906 228.691406 238.863281 L 230.761719 217.671875 C 233.988281 216.597656 237.136719 215.292969 240.128906 213.757812 L 256.5625 227.269531 C 256.714844 227.425781 256.867188 227.5 257.097656 227.65625 C 257.175781 227.65625 257.25 227.730469 257.25 227.730469 C 257.40625 227.808594 257.480469 227.886719 257.636719 227.886719 C 257.710938 227.886719 257.789062 227.960938 257.867188 227.960938 C 258.019531 227.960938 258.097656 228.039062 258.25 228.039062 C 258.328125 228.039062 258.402344 228.039062 258.480469 228.039062 C 258.558594 228.039062 258.710938 228.039062 258.789062 228.039062 C 258.941406 228.039062 259.019531 228.039062 259.171875 228.039062 C 259.246094 228.039062 259.324219 228.039062 259.476562 228.039062 C 259.632812 228.039062 259.707031 227.960938 259.863281 227.960938 C 259.9375 227.960938 260.015625 227.886719 260.09375 227.886719 C 260.246094 227.808594 260.324219 227.730469 260.476562 227.65625 C 260.554688 227.65625 260.628906 227.578125 260.707031 227.578125 C 260.859375 227.425781 261.089844 227.347656 261.246094 227.117188 L 287.578125 200.78125 C 288.808594 199.554688 288.960938 197.558594 287.808594 196.175781 L 274.375 179.667969 C 275.910156 176.597656 277.214844 173.523438 278.289062 170.300781 L 299.480469 168.226562 C 301.246094 168.074219 302.628906 166.539062 302.628906 164.773438 L 302.628906 127.535156 C 302.550781 125.769531 301.167969 124.234375 299.402344 124.078125 Z M 299.402344 124.078125 " fill-opacity="1" fill-rule="nonzero"/></g><g clip-path="url(#8f353755ab)"><path fill="#3533cd" d="M 90.871094 99.433594 C 91.023438 99.585938 91.175781 99.664062 91.253906 99.816406 C 91.792969 100.277344 92.253906 100.738281 92.789062 101.121094 C 92.867188 101.121094 92.867188 101.199219 92.945312 101.199219 C 93.480469 101.660156 94.09375 102.121094 94.632812 102.503906 C 94.785156 102.582031 94.941406 102.734375 95.09375 102.8125 C 95.628906 103.195312 96.089844 103.578125 96.628906 103.886719 C 96.707031 103.960938 96.78125 103.960938 96.859375 104.039062 C 97.472656 104.421875 98.011719 104.808594 98.625 105.191406 C 98.777344 105.269531 98.933594 105.421875 99.164062 105.5 C 99.699219 105.804688 100.160156 106.113281 100.699219 106.34375 C 100.851562 106.417969 100.929688 106.496094 101.082031 106.574219 C 101.695312 106.878906 102.3125 107.1875 102.925781 107.496094 C 103.15625 107.570312 103.308594 107.648438 103.539062 107.800781 C 104 108.03125 104.539062 108.261719 104.996094 108.414062 C 105.152344 108.492188 105.304688 108.570312 105.535156 108.644531 C 106.148438 108.875 106.765625 109.105469 107.378906 109.335938 C 107.609375 109.414062 107.839844 109.492188 108.070312 109.566406 C 108.53125 109.722656 108.992188 109.875 109.449219 110.027344 C 109.679688 110.105469 109.910156 110.183594 110.066406 110.257812 C 110.679688 110.414062 111.292969 110.640625 111.90625 110.796875 C 112.136719 110.871094 112.445312 110.949219 112.675781 110.949219 C 113.136719 111.027344 113.519531 111.179688 113.980469 111.257812 C 114.210938 111.332031 114.519531 111.332031 114.75 111.410156 C 115.363281 111.488281 115.976562 111.640625 116.515625 111.71875 C 116.820312 111.792969 117.128906 111.792969 117.359375 111.871094 C 117.742188 111.949219 118.128906 111.949219 118.511719 112.023438 C 118.816406 112.023438 119.125 112.101562 119.433594 112.101562 C 120.046875 112.179688 120.585938 112.179688 121.199219 112.253906 C 121.503906 112.253906 121.8125 112.253906 122.195312 112.253906 C 122.582031 112.253906 122.886719 112.253906 123.269531 112.253906 C 123.65625 112.253906 123.960938 112.253906 124.347656 112.253906 C 124.421875 112.253906 124.5 112.253906 124.578125 112.253906 C 126.035156 112.253906 127.570312 112.179688 129.03125 111.949219 C 129.105469 111.949219 129.183594 111.949219 129.261719 111.949219 C 129.722656 111.871094 130.179688 111.871094 130.640625 111.792969 C 130.796875 111.792969 130.871094 111.792969 131.027344 111.71875 C 131.488281 111.640625 131.949219 111.5625 132.410156 111.488281 C 132.484375 111.488281 132.636719 111.488281 132.714844 111.410156 C 134.25 111.101562 135.785156 110.796875 137.320312 110.335938 C 138.089844 110.105469 138.859375 109.875 139.625 109.644531 C 140.316406 109.414062 141.085938 109.105469 141.851562 108.875 L 213.949219 180.972656 C 216.558594 180.433594 219.09375 179.667969 221.550781 178.515625 C 229.378906 174.984375 235.675781 168.6875 239.285156 160.78125 C 240.359375 158.324219 241.203125 155.789062 241.742188 153.179688 L 169.644531 81.082031 C 169.953125 80.390625 170.183594 79.625 170.414062 78.855469 C 170.644531 78.089844 170.875 77.320312 171.105469 76.550781 C 173.179688 69.105469 173.484375 61.503906 172.179688 54.210938 C 172.179688 54.132812 172.179688 54.132812 172.179688 54.054688 C 172.101562 53.59375 172.027344 53.210938 171.871094 52.75 C 171.871094 52.675781 171.796875 52.597656 171.796875 52.445312 C 171.71875 52.058594 171.640625 51.597656 171.488281 51.214844 C 171.488281 51.0625 171.414062 50.984375 171.414062 50.832031 C 171.335938 50.449219 171.183594 50.0625 171.105469 49.679688 C 171.027344 49.527344 171.027344 49.371094 170.953125 49.21875 C 170.875 48.835938 170.722656 48.527344 170.644531 48.144531 C 170.566406 47.992188 170.566406 47.835938 170.492188 47.605469 C 170.414062 47.300781 170.261719 46.914062 170.105469 46.609375 C 170.03125 46.453125 169.953125 46.222656 169.875 46.070312 C 169.722656 45.765625 169.644531 45.457031 169.492188 45.148438 C 169.414062 44.917969 169.339844 44.765625 169.261719 44.535156 C 169.109375 44.226562 169.03125 43.921875 168.878906 43.613281 C 168.800781 43.382812 168.726562 43.230469 168.570312 43 C 168.417969 42.691406 168.339844 42.386719 168.1875 42.15625 C 168.109375 41.925781 167.957031 41.769531 167.878906 41.539062 C 167.726562 41.234375 167.574219 41.003906 167.496094 40.695312 C 167.417969 40.464844 167.265625 40.234375 167.113281 40.082031 C 166.960938 39.851562 166.804688 39.542969 166.652344 39.3125 C 166.5 39.085938 166.421875 38.855469 166.269531 38.625 C 166.113281 38.394531 165.960938 38.085938 165.808594 37.855469 C 165.652344 37.625 165.5 37.394531 165.347656 37.164062 C 165.191406 36.933594 165.039062 36.703125 164.886719 36.472656 C 164.730469 36.242188 164.578125 36.011719 164.425781 35.78125 C 164.273438 35.550781 164.117188 35.320312 163.964844 35.089844 C 163.8125 34.859375 163.65625 34.628906 163.425781 34.402344 C 163.273438 34.171875 163.121094 33.941406 162.964844 33.785156 C 162.8125 33.554688 162.582031 33.324219 162.429688 33.09375 C 162.277344 32.863281 162.121094 32.710938 161.96875 32.480469 C 161.738281 32.25 161.585938 31.945312 161.355469 31.714844 C 161.199219 31.558594 161.046875 31.328125 160.894531 31.175781 C 160.664062 30.867188 160.433594 30.636719 160.125 30.332031 C 159.972656 30.175781 159.894531 30.023438 159.742188 29.871094 C 159.359375 29.488281 158.972656 29.027344 158.589844 28.640625 C 158.050781 28.105469 157.515625 27.644531 156.976562 27.105469 C 156.824219 26.953125 156.746094 26.875 156.59375 26.722656 C 156.054688 26.261719 155.519531 25.800781 154.980469 25.339844 C 154.90625 25.265625 154.90625 25.265625 154.828125 25.1875 C 154.289062 24.804688 153.753906 24.34375 153.292969 23.957031 C 153.136719 23.882812 153.0625 23.726562 152.910156 23.652344 C 152.371094 23.265625 151.757812 22.808594 151.140625 22.421875 C 151.066406 22.347656 150.988281 22.347656 150.910156 22.269531 C 150.375 21.886719 149.835938 21.578125 149.300781 21.269531 C 149.144531 21.195312 149.070312 21.117188 148.914062 21.039062 C 148.300781 20.65625 147.6875 20.351562 147.074219 20.042969 C 146.996094 19.964844 146.84375 19.890625 146.765625 19.890625 C 146.226562 19.582031 145.691406 19.351562 145.152344 19.042969 C 145 18.96875 144.921875 18.890625 144.769531 18.890625 C 144.15625 18.582031 143.542969 18.355469 142.851562 18.046875 C 142.695312 17.96875 142.542969 17.96875 142.464844 17.894531 C 141.929688 17.664062 141.316406 17.433594 140.777344 17.203125 C 140.699219 17.125 140.546875 17.125 140.46875 17.046875 C 139.777344 16.816406 139.164062 16.585938 138.472656 16.433594 C 138.320312 16.355469 138.167969 16.355469 138.011719 16.28125 C 137.398438 16.128906 136.785156 15.898438 136.171875 15.742188 C 136.09375 15.742188 136.015625 15.667969 135.941406 15.667969 C 135.25 15.511719 134.558594 15.359375 133.867188 15.207031 C 133.714844 15.207031 133.558594 15.128906 133.40625 15.128906 C 132.714844 14.976562 132.101562 14.898438 131.410156 14.746094 C 131.410156 14.746094 131.332031 14.746094 131.332031 14.746094 C 130.640625 14.667969 129.953125 14.589844 129.261719 14.515625 C 129.105469 14.515625 128.953125 14.515625 128.800781 14.4375 C 128.109375 14.359375 127.417969 14.285156 126.726562 14.285156 C 126.648438 14.285156 126.648438 14.285156 126.574219 14.285156 C 125.882812 14.285156 125.191406 14.207031 124.578125 14.207031 C 124.347656 14.207031 124.191406 14.207031 123.960938 14.207031 C 123.730469 14.207031 123.5 14.207031 123.269531 14.207031 C 122.964844 14.207031 122.734375 14.207031 122.425781 14.207031 C 122.195312 14.207031 121.964844 14.207031 121.734375 14.207031 C 121.429688 14.207031 121.199219 14.207031 120.890625 14.285156 C 120.660156 14.285156 120.429688 14.285156 120.199219 14.359375 C 119.894531 14.359375 119.664062 14.4375 119.355469 14.4375 C 119.125 14.4375 118.894531 14.515625 118.664062 14.515625 C 118.359375 14.515625 118.050781 14.589844 117.820312 14.589844 C 117.589844 14.589844 117.359375 14.667969 117.207031 14.667969 C 116.898438 14.746094 116.589844 14.746094 116.285156 14.820312 C 116.054688 14.820312 115.902344 14.898438 115.671875 14.898438 C 115.363281 14.976562 114.980469 15.050781 114.671875 15.128906 C 114.519531 15.128906 114.363281 15.207031 114.132812 15.207031 C 113.597656 15.28125 113.136719 15.4375 112.597656 15.511719 C 111.371094 15.820312 110.449219 16.742188 110.066406 17.96875 C 109.757812 19.199219 110.066406 20.425781 110.910156 21.347656 L 136.09375 46.609375 L 126.34375 65.417969 L 107.378906 75.402344 L 82.195312 50.140625 C 82.039062 49.988281 81.886719 49.832031 81.734375 49.757812 C 81.65625 49.757812 81.65625 49.679688 81.582031 49.679688 C 81.425781 49.601562 81.273438 49.449219 81.042969 49.371094 C 80.890625 49.296875 80.660156 49.21875 80.503906 49.21875 C 80.429688 49.21875 80.429688 49.21875 80.351562 49.21875 C 80.199219 49.21875 79.96875 49.140625 79.8125 49.140625 C 79.8125 49.140625 79.8125 49.140625 79.738281 49.140625 C 79.660156 49.140625 79.507812 49.140625 79.429688 49.140625 C 79.355469 49.140625 79.355469 49.140625 79.277344 49.140625 C 79.125 49.140625 78.96875 49.21875 78.816406 49.21875 C 77.585938 49.527344 76.667969 50.523438 76.359375 51.753906 C 72.367188 68.492188 77.203125 85.6875 89.335938 97.820312 C 89.796875 98.433594 90.332031 98.894531 90.871094 99.433594 Z M 90.871094 99.433594 " fill-opacity="1" fill-rule="nonzero"/></g><g clip-path="url(#6398f21e62)"><g clip-path="url(#29e4870d6f)"><path fill="url(#9829bf4e15)" d="M 48.371094 242.097656 L 48.371094 298.347656 L 349.601562 298.347656 L 349.601562 242.097656 Z M 48.371094 242.097656 " fill-rule="nonzero"/></g></g><g fill="#ffffff" fill-opacity="1"><g transform="translate(111.63035, 284.097257)"><g><path d="M 3.90625 0.265625 C 1.800781 0.265625 0.40625 -0.472656 -0.28125 -1.953125 C -0.976562 -3.441406 -0.976562 -5.691406 -0.28125 -8.703125 L 2.609375 -21.28125 C 3.242188 -23.976562 4.320312 -26.019531 5.84375 -27.40625 C 7.363281 -28.789062 9.3125 -29.484375 11.6875 -29.484375 C 13.613281 -29.484375 15.019531 -29.097656 15.90625 -28.328125 C 16.789062 -27.554688 17.265625 -26.429688 17.328125 -24.953125 C 17.398438 -23.484375 17.175781 -21.59375 16.65625 -19.28125 L 10.9375 -19.28125 L 11.5625 -21.890625 C 11.71875 -22.597656 11.742188 -23.144531 11.640625 -23.53125 C 11.535156 -23.914062 11.234375 -24.109375 10.734375 -24.109375 C 9.628906 -24.109375 8.90625 -23.382812 8.5625 -21.9375 L 5.296875 -7.78125 C 5.097656 -6.894531 5.050781 -6.222656 5.15625 -5.765625 C 5.269531 -5.316406 5.613281 -5.09375 6.1875 -5.09375 C 6.75 -5.09375 7.203125 -5.316406 7.546875 -5.765625 C 7.890625 -6.222656 8.160156 -6.894531 8.359375 -7.78125 L 9.3125 -11.96875 L 7.75 -11.96875 L 8.90625 -17 L 16.046875 -17 L 12.140625 0 L 9.796875 0 L 9.34375 -2.453125 C 7.894531 -0.640625 6.082031 0.265625 3.90625 0.265625 Z M 3.90625 0.265625 "/></g></g></g><g fill="#ffffff" fill-opacity="1"><g transform="translate(128.118458, 284.097257)"><g><path d="M 5.265625 0.265625 C 2.703125 0.265625 1.023438 -0.429688 0.234375 -1.828125 C -0.554688 -3.234375 -0.625 -5.332031 0.03125 -8.125 L 2.34375 -18.125 C 2.863281 -20.414062 3.914062 -22.160156 5.5 -23.359375 C 7.09375 -24.554688 9.066406 -25.15625 11.421875 -25.15625 C 16.203125 -25.15625 18.0625 -22.8125 17 -18.125 L 16.5625 -16.3125 C 16.144531 -14.5 15.78125 -13.03125 15.46875 -11.90625 L 6.828125 -11.90625 L 5.75 -7.078125 C 5.539062 -6.210938 5.46875 -5.535156 5.53125 -5.046875 C 5.601562 -4.554688 5.9375 -4.3125 6.53125 -4.3125 C 6.976562 -4.3125 7.328125 -4.445312 7.578125 -4.71875 C 7.828125 -5 8.015625 -5.3125 8.140625 -5.65625 C 8.265625 -6.007812 8.394531 -6.523438 8.53125 -7.203125 L 9.109375 -9.625 L 15.03125 -9.625 L 14.6875 -8.1875 C 14.03125 -5.289062 12.976562 -3.15625 11.53125 -1.78125 C 10.09375 -0.414062 8.003906 0.265625 5.265625 0.265625 Z M 10.296875 -14.859375 L 11.046875 -18.046875 C 11.453125 -19.835938 11.210938 -20.734375 10.328125 -20.734375 C 9.335938 -20.734375 8.632812 -19.835938 8.21875 -18.046875 L 7.484375 -14.859375 Z M 10.296875 -14.859375 "/></g></g></g><g fill="#ffffff" fill-opacity="1"><g transform="translate(144.708556, 284.097257)"><g><path d="M 2.8125 0.265625 C 0.882812 0.265625 -0.285156 -0.367188 -0.703125 -1.640625 C -1.117188 -2.921875 -1.054688 -4.753906 -0.515625 -7.140625 C -0.0546875 -9.085938 0.539062 -10.582031 1.28125 -11.625 C 2.03125 -12.664062 2.914062 -13.429688 3.9375 -13.921875 C 4.957031 -14.410156 6.46875 -14.945312 8.46875 -15.53125 L 10.234375 -16.078125 L 10.234375 -16.15625 L 10.8125 -18.625 C 10.96875 -19.289062 10.953125 -19.796875 10.765625 -20.140625 C 10.585938 -20.492188 10.316406 -20.671875 9.953125 -20.671875 C 9.640625 -20.671875 9.328125 -20.519531 9.015625 -20.21875 C 8.710938 -19.925781 8.503906 -19.535156 8.390625 -19.046875 L 8.0625 -17.546875 L 2.28125 -17.546875 L 2.4375 -18.359375 C 3.007812 -20.804688 3.984375 -22.550781 5.359375 -23.59375 C 6.742188 -24.632812 8.726562 -25.15625 11.3125 -25.15625 C 13.375 -25.15625 14.925781 -24.617188 15.96875 -23.546875 C 17.019531 -22.472656 17.316406 -20.945312 16.859375 -18.96875 L 12.515625 0 L 6.59375 0 L 7.265625 -2.953125 C 6.722656 -1.929688 6.066406 -1.140625 5.296875 -0.578125 C 4.523438 -0.015625 3.695312 0.265625 2.8125 0.265625 Z M 6.21875 -4.359375 C 6.675781 -4.359375 7.046875 -4.539062 7.328125 -4.90625 C 7.609375 -5.28125 7.804688 -5.742188 7.921875 -6.296875 L 9.515625 -13.21875 C 8.566406 -12.882812 7.816406 -12.457031 7.265625 -11.9375 C 6.722656 -11.414062 6.351562 -10.691406 6.15625 -9.765625 L 5.40625 -6.5625 C 5.0625 -5.09375 5.332031 -4.359375 6.21875 -4.359375 Z M 6.21875 -4.359375 "/></g></g></g><g fill="#ffffff" fill-opacity="1"><g transform="translate(161.128675, 284.097257)"><g><path d="M 4.046875 -24.890625 L 10 -24.890625 L 9.375 -22.140625 C 9.894531 -23.109375 10.585938 -23.859375 11.453125 -24.390625 C 12.316406 -24.921875 13.289062 -25.1875 14.375 -25.1875 L 13.21875 -20.234375 C 12.382812 -20.234375 11.429688 -20.113281 10.359375 -19.875 C 9.296875 -19.632812 8.734375 -19.359375 8.671875 -19.046875 L 4.25 0 L -1.703125 0 Z M 4.046875 -24.890625 "/></g></g></g><g fill="#ffffff" fill-opacity="1"><g transform="translate(172.823335, 284.097257)"><g><path d="M 5.125 0.265625 C 0.207031 0.265625 -1.679688 -2.222656 -0.546875 -7.203125 L -0.03125 -9.1875 L 5.90625 -9.1875 L 5.265625 -6.25 C 5.128906 -5.664062 5.140625 -5.21875 5.296875 -4.90625 C 5.460938 -4.601562 5.804688 -4.453125 6.328125 -4.453125 C 7.117188 -4.453125 7.660156 -5.097656 7.953125 -6.390625 C 8.179688 -7.335938 8.171875 -8.082031 7.921875 -8.625 C 7.671875 -9.175781 7.207031 -9.757812 6.53125 -10.375 L 3.9375 -12.8125 C 3.03125 -13.65625 2.441406 -14.523438 2.171875 -15.421875 C 1.898438 -16.316406 1.957031 -17.578125 2.34375 -19.203125 C 2.632812 -20.472656 3.21875 -21.554688 4.09375 -22.453125 C 4.96875 -23.347656 6.007812 -24.019531 7.21875 -24.46875 C 8.4375 -24.925781 9.722656 -25.15625 11.078125 -25.15625 C 15.910156 -25.15625 17.769531 -22.753906 16.65625 -17.953125 L 16.5625 -17.46875 L 10.40625 -17.46875 L 10.640625 -18.421875 C 10.773438 -19.015625 10.789062 -19.519531 10.6875 -19.9375 C 10.582031 -20.351562 10.304688 -20.5625 9.859375 -20.5625 C 9.453125 -20.5625 9.109375 -20.441406 8.828125 -20.203125 C 8.554688 -19.972656 8.378906 -19.65625 8.296875 -19.25 C 8.085938 -18.34375 8.28125 -17.640625 8.875 -17.140625 L 11.9375 -14.453125 C 13.019531 -13.472656 13.773438 -12.410156 14.203125 -11.265625 C 14.640625 -10.117188 14.664062 -8.675781 14.28125 -6.9375 C 13.738281 -4.625 12.664062 -2.84375 11.0625 -1.59375 C 9.46875 -0.351562 7.488281 0.265625 5.125 0.265625 Z M 5.125 0.265625 "/></g></g></g><g fill="#ffffff" fill-opacity="1"><g transform="translate(188.971485, 284.097257)"><g><path d="M -2.046875 0 L 4.6875 -29.203125 L 13.59375 -29.203125 L 11.9375 -11.390625 L 18.5 -29.203125 L 27.46875 -29.203125 L 20.734375 0 L 15.40625 0 L 20.265625 -21.046875 L 12.03125 0 L 6.796875 0 L 8.09375 -21.046875 L 3.234375 0 Z M -2.046875 0 "/></g></g></g><g fill="#ffffff" fill-opacity="1"><g transform="translate(214.332576, 284.097257)"><g><path d="M 5.546875 0.265625 C 0.578125 0.265625 -1.316406 -2.304688 -0.140625 -7.453125 L 2.171875 -17.4375 C 2.710938 -19.800781 3.804688 -21.675781 5.453125 -23.0625 C 7.097656 -24.457031 9.078125 -25.15625 11.390625 -25.15625 C 13.703125 -25.15625 15.359375 -24.457031 16.359375 -23.0625 C 17.367188 -21.675781 17.601562 -19.800781 17.0625 -17.4375 L 14.75 -7.453125 C 13.570312 -2.304688 10.503906 0.265625 5.546875 0.265625 Z M 6.59375 -4.3125 C 7.070312 -4.3125 7.460938 -4.484375 7.765625 -4.828125 C 8.066406 -5.171875 8.285156 -5.632812 8.421875 -6.21875 L 11.21875 -18.390625 C 11.5625 -19.835938 11.265625 -20.5625 10.328125 -20.5625 C 9.398438 -20.5625 8.765625 -19.835938 8.421875 -18.390625 L 5.640625 -6.21875 C 5.503906 -5.632812 5.507812 -5.171875 5.65625 -4.828125 C 5.800781 -4.484375 6.113281 -4.3125 6.59375 -4.3125 Z M 6.59375 -4.3125 "/></g></g></g><g fill="#ffffff" fill-opacity="1"><g transform="translate(231.228643, 284.097257)"><g><path d="M 2.953125 0.265625 C 1.390625 0.265625 0.390625 -0.0625 -0.046875 -0.71875 C -0.492188 -1.375 -0.546875 -2.425781 -0.203125 -3.875 L 3.390625 -19.40625 L 1.734375 -19.40625 L 2.75 -23.9375 L 4.421875 -23.9375 L 5.640625 -29.203125 L 11.421875 -29.203125 L 10.203125 -23.9375 L 11.890625 -23.9375 L 10.875 -19.40625 L 9.171875 -19.40625 L 5.953125 -5.4375 C 5.835938 -5.007812 5.789062 -4.691406 5.8125 -4.484375 C 5.832031 -4.285156 5.988281 -4.1875 6.28125 -4.1875 C 6.507812 -4.1875 6.726562 -4.195312 6.9375 -4.21875 C 7.15625 -4.238281 7.300781 -4.25 7.375 -4.25 L 6.421875 -0.171875 C 6.054688 -0.078125 5.539062 0.015625 4.875 0.109375 C 4.207031 0.210938 3.566406 0.265625 2.953125 0.265625 Z M 2.953125 0.265625 "/></g></g></g><g fill="#ffffff" fill-opacity="1"><g transform="translate(241.597458, 284.097257)"><g><path d="M 5.546875 0.265625 C 0.578125 0.265625 -1.316406 -2.304688 -0.140625 -7.453125 L 2.171875 -17.4375 C 2.710938 -19.800781 3.804688 -21.675781 5.453125 -23.0625 C 7.097656 -24.457031 9.078125 -25.15625 11.390625 -25.15625 C 13.703125 -25.15625 15.359375 -24.457031 16.359375 -23.0625 C 17.367188 -21.675781 17.601562 -19.800781 17.0625 -17.4375 L 14.75 -7.453125 C 13.570312 -2.304688 10.503906 0.265625 5.546875 0.265625 Z M 6.59375 -4.3125 C 7.070312 -4.3125 7.460938 -4.484375 7.765625 -4.828125 C 8.066406 -5.171875 8.285156 -5.632812 8.421875 -6.21875 L 11.21875 -18.390625 C 11.5625 -19.835938 11.265625 -20.5625 10.328125 -20.5625 C 9.398438 -20.5625 8.765625 -19.835938 8.421875 -18.390625 L 5.640625 -6.21875 C 5.503906 -5.632812 5.507812 -5.171875 5.65625 -4.828125 C 5.800781 -4.484375 6.113281 -4.3125 6.59375 -4.3125 Z M 6.59375 -4.3125 "/></g></g></g><g fill="#ffffff" fill-opacity="1"><g transform="translate(258.493526, 284.097257)"><g><path d="M 4.046875 -24.890625 L 10 -24.890625 L 9.375 -22.140625 C 9.894531 -23.109375 10.585938 -23.859375 11.453125 -24.390625 C 12.316406 -24.921875 13.289062 -25.1875 14.375 -25.1875 L 13.21875 -20.234375 C 12.382812 -20.234375 11.429688 -20.113281 10.359375 -19.875 C 9.296875 -19.632812 8.734375 -19.359375 8.671875 -19.046875 L 4.25 0 L -1.703125 0 Z M 4.046875 -24.890625 "/></g></g></g><g fill="#ffffff" fill-opacity="1"><g transform="translate(270.188185, 284.097257)"><g><path d="M 5.125 0.265625 C 0.207031 0.265625 -1.679688 -2.222656 -0.546875 -7.203125 L -0.03125 -9.1875 L 5.90625 -9.1875 L 5.265625 -6.25 C 5.128906 -5.664062 5.140625 -5.21875 5.296875 -4.90625 C 5.460938 -4.601562 5.804688 -4.453125 6.328125 -4.453125 C 7.117188 -4.453125 7.660156 -5.097656 7.953125 -6.390625 C 8.179688 -7.335938 8.171875 -8.082031 7.921875 -8.625 C 7.671875 -9.175781 7.207031 -9.757812 6.53125 -10.375 L 3.9375 -12.8125 C 3.03125 -13.65625 2.441406 -14.523438 2.171875 -15.421875 C 1.898438 -16.316406 1.957031 -17.578125 2.34375 -19.203125 C 2.632812 -20.472656 3.21875 -21.554688 4.09375 -22.453125 C 4.96875 -23.347656 6.007812 -24.019531 7.21875 -24.46875 C 8.4375 -24.925781 9.722656 -25.15625 11.078125 -25.15625 C 15.910156 -25.15625 17.769531 -22.753906 16.65625 -17.953125 L 16.5625 -17.46875 L 10.40625 -17.46875 L 10.640625 -18.421875 C 10.773438 -19.015625 10.789062 -19.519531 10.6875 -19.9375 C 10.582031 -20.351562 10.304688 -20.5625 9.859375 -20.5625 C 9.453125 -20.5625 9.109375 -20.441406 8.828125 -20.203125 C 8.554688 -19.972656 8.378906 -19.65625 8.296875 -19.25 C 8.085938 -18.34375 8.28125 -17.640625 8.875 -17.140625 L 11.9375 -14.453125 C 13.019531 -13.472656 13.773438 -12.410156 14.203125 -11.265625 C 14.640625 -10.117188 14.664062 -8.675781 14.28125 -6.9375 C 13.738281 -4.625 12.664062 -2.84375 11.0625 -1.59375 C 9.46875 -0.351562 7.488281 0.265625 5.125 0.265625 Z M 5.125 0.265625 "/></g></g></g></svg>